<svg width="133" height="41" viewBox="0 0 133 41" fill="none" xmlns="http://www.w3.org/2000/svg">
<path d="M86.145 17.7154V2.59428C86.145 1.64966 85.3789 0.883545 84.4343 0.883545H77.7578V17.7154H86.1443H86.145Z" fill="white"/>
<path d="M20.21 31.3225C14.5591 31.3225 9.97841 26.6295 9.97841 20.8401C9.97841 15.0508 14.5591 10.3578 20.21 10.3578C22.7023 10.3578 24.9839 11.273 26.7575 12.7905C27.5323 13.4537 28.6735 13.447 29.4021 12.7337L33.3745 8.84428C34.1787 8.05677 34.1393 6.75851 33.3029 6.00576C29.578 2.65115 24.5841 0.679691 19.1277 0.900301C9.01775 1.30943 0.684026 9.43659 0.0415821 19.5345C-0.697128 31.1473 8.50299 40.7967 19.9567 40.7967C25.1577 40.7967 29.8928 38.8045 33.444 35.5441C34.2469 34.8074 34.2776 33.552 33.4921 32.7972L29.3915 28.8556C28.6842 28.1758 27.5831 28.1711 26.8444 28.8175C25.0581 30.3792 22.7424 31.3231 20.2107 31.3231L20.21 31.3225Z" fill="white"/>
<path d="M49.4251 17.7154V10.5235C49.4251 9.68657 50.1037 9.00802 50.9407 9.00802H56.9754C58.7857 9.31487 60.7431 10.3344 60.7431 13.3159V14.7813C60.6301 15.732 60.0987 17.1626 57.9935 17.7041H67.098C67.098 17.7041 69.2547 16.1946 69.2547 12.9295V10.7181C69.2547 8.61494 68.6664 6.96303 67.7472 5.66344C67.2164 4.91269 66.5746 4.27961 65.8693 3.74613C62.131 0.918308 56.6364 0.883545 56.6364 0.883545H41.2532C40.4563 0.883545 39.8105 1.52933 39.8105 2.3262V17.7154H49.4251Z" fill="white"/>
<path d="M39.8105 25.0691V39.2944C39.8105 40.1241 40.4831 40.7966 41.3127 40.7966H49.4251V25.0698L39.8105 25.0691Z" fill="white"/>
<path d="M53.8034 25.0691L61.6464 39.9142C61.9332 40.457 62.4961 40.7959 63.1091 40.7959H73.2913L64.005 25.0691H53.8034Z" fill="white"/>
<path d="M77.7578 25.0691V39.0852C77.7578 40.0298 78.5239 40.7959 79.4685 40.7959H86.145V25.0691H77.7578Z" fill="white"/>
<path d="M112.74 0.971191C102.29 0.971191 94.8912 8.22192 93.5254 17.7162H103.577C104.492 17.7162 105.233 16.9741 105.233 16.0596V8.17846L126.43 20.9277L105.233 33.677V26.7271C105.233 25.8119 104.491 25.0705 103.577 25.0705H93.6738C95.3538 34.1035 102.527 40.885 112.74 40.885C124.561 40.885 132.185 31.9502 132.185 20.9284C132.185 9.90658 124.602 0.971191 112.74 0.971191Z" fill="white"/>
</svg>
