<?xml version="1.0" encoding="UTF-8"?><svg id="Layer_1" xmlns="http://www.w3.org/2000/svg" viewBox="0 0 725.1 303.96"><defs><style>.cls-1{fill:#e57e2b;}.cls-2{fill:#0d2b3a;}.cls-3{fill:#001635;}</style></defs><path class="cls-2" d="m52.9,205.9c-16.19-9.15-29.6-22.72-38.78-39.2C4.71,149.98,0,131.09,0,110.02s4.71-39.97,14.12-56.68c9.18-16.48,22.6-30.04,38.78-39.2C69.34,4.71,87.83,0,108.36,0c17.33,0,32.97,3.24,46.91,9.73,10.58,4.86,20.2,11.67,28.39,20.1,3.91,4.08,3.87,10.65-.1,14.67-.04.04-.08.08-.11.11l-14.95,14.7c-11.75,10.47-17.26,10.12-22.84,5.56-11.22-9.15-20.77-12.68-35.33-12.68-10.07-.18-20.01,2.37-28.83,7.37-8.34,4.8-15.19,11.93-19.76,20.56-4.73,8.78-7.1,18.76-7.09,29.95,0,11.19,2.37,21.17,7.09,29.94,4.57,8.63,11.42,15.76,19.76,20.56,8.82,5,18.76,7.53,28.83,7.35,14.56,0,26-6.48,37.77-15.01,7.08-5.14,11.79-.69,20.45,7.64l15.59,15.19c3.68,3.64,3.79,9.65.25,13.43,0,0-.02.02-.02.03-8.33,8.9-18.26,16.05-29.24,21.06-14.07,6.48-29.73,9.72-47,9.73-20.38.03-38.79-4.67-55.23-14.1Z"/><path class="cls-2" d="m711.21,53.61c-8.89-16.33-22.06-29.93-38.08-39.35-16.12-9.51-34.28-14.26-54.48-14.26s-38.39,4.76-54.59,14.28c-16.08,9.36-29.26,22.97-38.11,39.33-5.75,10.47-9.75,25-11.84,37.1h54.67c4.97,0,9.01-4.02,9.02-9v-.03l-.05-41.72,116.26,70.38-116.06,70.43-.06-42.52c0-4.97-4.04-9-9.02-9h-54.76c2.14,12.1,6.09,26.63,11.84,37.1,8.84,16.35,22.01,29.95,38.07,39.31,16.21,9.53,34.41,14.29,54.59,14.28,20.18,0,38.35-4.77,54.52-14.28,16.03-9.42,29.19-23.02,38.08-39.35,9.26-16.71,13.89-35.5,13.89-56.37s-4.63-39.65-13.89-56.34Z"/><path class="cls-2" d="m431.16,132.61v78.12c0,5.09,4.13,9.22,9.22,9.22h37v-87.34h-46.22Z"/><path class="cls-2" d="m477.35,93.08V9.77C477.36,4.38,473.26,0,468.2,0c0,0,0,0-.01,0h-37v93.08h46.16Z"/><path class="cls-2" d="m270.62,93.07c-.07-.5-.12-4.56-.12-5.08v-33.79c0-5.36,4.06-9.7,9.09-9.71,0,0,0,0,.01,0h20.2c4.26.02,8.51.34,12.72.97,4.41.65,8.21,1.58,11.61,3.71,2.32,1.18,4.28,3.02,5.67,5.33,2.25,3.34,3.42,8.22,3.38,14.24,0,8.11-.11,13.41-4.81,17.74-5,4.62-7.11,5.21-10.44,6.55l49.92.18c4-2.32,12-12.17,12-26.56,0-13.17.13-21.8-3.44-30.66s-8.35-13.61-14.32-19c-7.67-6.67-16.7-11.33-26.37-13.61C325.22,1.12,314.54-.02,303.83,0h-77.43c-5.03,0-9.11,4.35-9.11,9.71h0v83.36h53.33Z"/><path class="cls-2" d="m217.29,132.61v78.23c-.03,5.03,4.03,9.13,9.06,9.16.02,0,.03,0,.05,0h44.42v-87.39h-53.53Z"/><path class="cls-2" d="m350.32,132.61h-56.53c1.57.79,4.13,5.35,5,6.92l39.53,75.88c1.63,2.81,4.63,4.54,7.88,4.54h56.63"/><path class="cls-1" d="m9.2,282.91c0-12.31,9.4-21.05,22.55-21.05,8.5,0,15.19,3.72,18.12,10.41l-9.1,4.94c-2.18-3.88-5.41-5.62-9.1-5.62-5.94,0-10.6,4.18-10.6,11.32s4.66,11.33,10.6,11.33c3.68,0,6.92-1.67,9.1-5.62l9.1,5.02c-2.93,6.54-9.62,10.34-18.12,10.34-13.16,0-22.55-8.74-22.55-21.05Z"/><path class="cls-1" d="m56.34,246.96h11.73v56.39h-11.73v-56.39Z"/><path class="cls-1" d="m77.55,250.15c0-3.72,2.93-6.61,7.29-6.61s7.29,2.74,7.29,6.38c0,3.95-2.93,6.84-7.29,6.84s-7.29-2.89-7.29-6.61Zm1.43,12.31h11.73v40.89h-11.73v-40.89Z"/><path class="cls-1" d="m142.95,279.94v23.41h-11.73v-21.58c0-6.61-3.01-9.65-8.19-9.65-5.64,0-9.7,3.5-9.7,11.02v20.22h-11.73v-40.89h11.2v4.79c3.16-3.5,7.89-5.4,13.38-5.4,9.55,0,16.77,5.62,16.77,18.09Z"/><path class="cls-1" d="m152.13,250.15c0-3.72,2.93-6.61,7.29-6.61s7.29,2.74,7.29,6.38c0,3.95-2.93,6.84-7.29,6.84s-7.29-2.89-7.29-6.61Zm1.43,12.31h11.73v40.89h-11.73v-40.89Z"/><path class="cls-1" d="m173.18,282.91c0-12.31,9.4-21.05,22.55-21.05,8.5,0,15.19,3.72,18.12,10.41l-9.1,4.94c-2.18-3.88-5.41-5.62-9.1-5.62-5.94,0-10.6,4.18-10.6,11.32s4.66,11.33,10.6,11.33c3.68,0,6.92-1.67,9.1-5.62l9.1,5.02c-2.93,6.54-9.62,10.34-18.12,10.34-13.16,0-22.55-8.74-22.55-21.05Z"/><path class="cls-1" d="m256.41,280.02v23.33h-10.98v-5.09c-2.18,3.72-6.39,5.7-12.33,5.7-9.47,0-15.11-5.32-15.11-12.39s5.04-12.24,17.37-12.24h9.32c0-5.09-3.01-8.06-9.32-8.06-4.29,0-8.72,1.44-11.65,3.8l-4.21-8.28c4.44-3.19,10.98-4.94,17.44-4.94,12.33,0,19.47,5.78,19.47,18.17Zm-11.73,10.41v-4.18h-8.04c-5.49,0-7.22,2.05-7.22,4.79,0,2.96,2.48,4.94,6.62,4.94,3.91,0,7.29-1.82,8.65-5.55Z"/><path class="cls-1" d="m267.01,246.96h11.73v56.39h-11.73v-56.39Z"/><path class="cls-1" d="m314.75,261.85v10.94c-.98-.08-1.73-.15-2.63-.15-6.47,0-10.75,3.57-10.75,11.4v19.3h-11.73v-40.89h11.2v5.4c2.86-3.95,7.67-6,13.91-6Z"/><path class="cls-1" d="m360.76,286.25h-30.6c1.13,5.09,5.41,8.21,11.58,8.21,4.29,0,7.37-1.29,10.15-3.95l6.24,6.84c-3.76,4.33-9.4,6.61-16.69,6.61-13.98,0-23.08-8.89-23.08-21.05s9.25-21.05,21.58-21.05,21.05,8.06,21.05,21.21c0,.91-.15,2.2-.23,3.19Zm-30.75-6.92h19.92c-.83-5.17-4.66-8.51-9.92-8.51s-9.17,3.27-10,8.51Z"/><path class="cls-1" d="m364.9,299.55l3.91-8.51c3.61,2.36,9.1,3.95,14.06,3.95,5.41,0,7.44-1.44,7.44-3.72,0-6.69-24.43.15-24.43-16.19,0-7.75,6.92-13.22,18.72-13.22,5.56,0,11.73,1.29,15.56,3.57l-3.91,8.44c-3.99-2.28-7.97-3.04-11.65-3.04-5.26,0-7.52,1.67-7.52,3.8,0,6.99,24.43.23,24.43,16.34,0,7.6-6.99,13-19.1,13-6.84,0-13.76-1.9-17.52-4.41Z"/><path class="cls-1" d="m448.13,286.25h-30.6c1.13,5.09,5.41,8.21,11.58,8.21,4.29,0,7.37-1.29,10.15-3.95l6.24,6.84c-3.76,4.33-9.4,6.61-16.69,6.61-13.98,0-23.08-8.89-23.08-21.05s9.25-21.05,21.58-21.05,21.05,8.06,21.05,21.21c0,.91-.15,2.2-.23,3.19Zm-30.75-6.92h19.92c-.83-5.17-4.66-8.51-9.92-8.51s-9.17,3.27-10,8.51Z"/><path class="cls-1" d="m490.83,280.02v23.33h-10.98v-5.09c-2.18,3.72-6.39,5.7-12.33,5.7-9.47,0-15.11-5.32-15.11-12.39s5.04-12.24,17.37-12.24h9.32c0-5.09-3.01-8.06-9.32-8.06-4.29,0-8.72,1.44-11.65,3.8l-4.21-8.28c4.44-3.19,10.98-4.94,17.44-4.94,12.33,0,19.47,5.78,19.47,18.17Zm-11.73,10.41v-4.18h-8.04c-5.49,0-7.22,2.05-7.22,4.79,0,2.96,2.48,4.94,6.62,4.94,3.91,0,7.29-1.82,8.65-5.55Z"/><path class="cls-1" d="m526.55,261.85v10.94c-.98-.08-1.73-.15-2.63-.15-6.46,0-10.75,3.57-10.75,11.4v19.3h-11.73v-40.89h11.2v5.4c2.86-3.95,7.67-6,13.91-6Z"/><path class="cls-1" d="m530.16,282.91c0-12.31,9.4-21.05,22.55-21.05,8.5,0,15.19,3.72,18.12,10.41l-9.1,4.94c-2.18-3.88-5.41-5.62-9.1-5.62-5.94,0-10.6,4.18-10.6,11.32s4.66,11.33,10.6,11.33c3.68,0,6.92-1.67,9.1-5.62l9.1,5.02c-2.93,6.54-9.62,10.34-18.12,10.34-13.16,0-22.55-8.74-22.55-21.05Z"/><path class="cls-1" d="m618.65,279.94v23.41h-11.73v-21.58c0-6.61-3.01-9.65-8.2-9.65-5.64,0-9.7,3.5-9.7,11.02v20.22h-11.73v-56.39h11.73v19.76c3.16-3.19,7.67-4.86,12.86-4.86,9.55,0,16.76,5.62,16.76,18.09Z"/><path class="cls-3" d="m626.39,296.51c0-4.41,3.23-7.3,7.29-7.3s7.29,2.89,7.29,7.3-3.23,7.45-7.29,7.45-7.29-3.12-7.29-7.45Z"/><path class="cls-2" d="m647.52,250.15c0-3.72,2.93-6.61,7.29-6.61s7.29,2.74,7.29,6.38c0,3.95-2.93,6.84-7.29,6.84s-7.29-2.89-7.29-6.61Zm1.43,12.31h11.73v40.89h-11.73v-40.89Z"/><path class="cls-2" d="m668.57,282.91c0-12.31,9.4-21.05,22.25-21.05s22.18,8.74,22.18,21.05-9.32,21.05-22.18,21.05-22.25-8.74-22.25-21.05Zm32.55,0c0-7.07-4.44-11.32-10.3-11.32s-10.38,4.26-10.38,11.32,4.51,11.33,10.38,11.33,10.3-4.26,10.3-11.33Z"/></svg>